<?xml version="1.0" encoding="UTF-8"?>
<svg id="OBJECTS" xmlns="http://www.w3.org/2000/svg" viewBox="0 0 500 257.51">
  <g>
    <path d="M42.82,23.99l17.88-12.68,40.09,.38,9.2,12.94-9.13,27-26.78-.25,4.72-12.81-13.92-.13-16.91,52.94,13.16,.12,3.97-12.97-6.27-.06,4.31-13.27,33.82,.32-12.81,40.12-17.9,12.84-41.16-.39-9.04-13.09L42.82,23.99Z" fill="#002560"/>
    <path d="M93.79,118.74L124.51,24.92l18.81-12.83,40.09,.38,9.03,13.09-30.87,93.82-26.93-.26,8.97-27-13.92-.13-8.97,27-26.93-.26ZM160.52,39.34l-13.01-.12-8.96,26.85,13.92,.13,8.04-26.86Z" fill="#002560"/>
    <path d="M206.99,25.7l17.9-12.84,27.08,.26,9.04,13.09,17.89-12.84,27.08,.26,9.04,13.09-30.87,93.82-26.93-.26,26.8-79.93-13.92-.13-26.81,79.93-27.08-.26,26.81-79.93-13.01-.12-26.81,79.93-26.93-.26,30.72-93.82Z" fill="#002560"/>
    <path d="M375.27,94.48l-8.96,26.85-54.01-.51-9.04-13.09,26.9-80.85,17.74-12.84,54.01,.51-8.8,26.85-40.09-.38-4.91,13.11,41.01,.39-8.96,26.85-41.01-.39-3.99,13.12,40.09,.38Z" fill="#002560"/>
  </g>
  <g>
    <path d="M204.19,158.14l-35.8-.34,8.8-26.85,67.17,.64-8.8,26.85-53.65,52.75,36.57,.35-8.8,26.85-67.94-.65,8.8-26.85,53.65-52.75Z" fill="#002560"/>
    <path d="M225.12,225.51l26.9-80.85,17.89-12.84,40.09,.38,9.04,13.09-26.75,80.85-17.9,12.84-40.24-.38-9.03-13.09Zm45.08-13.5l17.85-53.08-13.92-.13-17.85,53.08,13.92,.13Z" fill="#002560"/>
    <path d="M356.42,159.74l-26.64,79.78-26.93-.26,30.72-93.82,17.89-12.84,41.01,.39,9.04,13.09-31.64,93.81-26.93-.26,26.48-79.78-13.01-.12Z" fill="#002560"/>
    <path d="M461.77,213.84l-8.96,26.85-54.01-.51-9.04-13.09,26.9-80.85,17.74-12.84,54.01,.51-8.8,26.85-40.09-.38-4.91,13.11,41.01,.39-8.96,26.85-41.01-.39-3.99,13.12,40.09,.38Z" fill="#002560"/>
  </g>
</svg>